<svg xmlns="http://www.w3.org/2000/svg" xmlns:xlink="http://www.w3.org/1999/xlink" width="1920" zoomAndPan="magnify" viewBox="0 0 1440 809.999993" height="1080" preserveAspectRatio="xMidYMid meet" version="1.0"><defs><clipPath id="37bca7565b"><path d="M 201 0 L 1440 0 L 1440 810 L 201 810 Z M 201 0 " clip-rule="nonzero"/></clipPath><clipPath id="8aaddad49f"><path d="M -48.433594 494.746094 L 1677.523438 -893.480469 L 2771.015625 466.042969 L 1045.0625 1854.265625 Z M -48.433594 494.746094 " clip-rule="nonzero"/></clipPath><clipPath id="50ecb84dfd"><path d="M 542.640625 54.085938 C 620.359375 -29.410156 714.246094 -118.695312 812.714844 -197.898438 C 911.1875 -277.101562 1011.707031 -346.148438 1109.277344 -403.640625 C 1111.457031 -404.738281 1113.3125 -406.230469 1115.492188 -407.328125 C 1484.40625 -620.121094 1834.179688 -679.8125 1973.542969 -516.058594 L 2766.433594 469.726562 L 1045.0625 1854.265625 L 252.761719 869.214844 C 121.460938 696.457031 251.03125 370.601562 542.640625 54.085938 Z M 542.640625 54.085938 " clip-rule="nonzero"/></clipPath><clipPath id="638bc4107e"><path d="M 0 504 L 1440 504 L 1440 810 L 0 810 Z M 0 504 " clip-rule="nonzero"/></clipPath><clipPath id="123723d8ba"><path d="M 43.398438 405 L 1669.914062 716.546875 L 1487.40625 1669.378906 L -139.109375 1357.832031 Z M 43.398438 405 " clip-rule="nonzero"/></clipPath><clipPath id="fe574fe94e"><path d="M 583.113281 519.503906 C 667.363281 528.925781 763.125 542.859375 856.050781 560.65625 C 948.976562 578.457031 1037.695312 599.230469 1118.855469 621.492188 C 1120.574219 622.03125 1122.324219 622.367188 1124.039062 622.90625 C 1428.53125 708.097656 1643.347656 820.199219 1630.304688 912.03125 L 1485.316406 1668.976562 L -139.109375 1357.832031 L 5.773438 601.445312 C 27.769531 510.328125 265.300781 484.871094 583.113281 519.503906 Z M 583.113281 519.503906 " clip-rule="nonzero"/></clipPath></defs><rect x="-144" width="1728" fill="#ffffff" y="-80.999999" height="971.999992" fill-opacity="1"/><rect x="-144" width="1728" fill="#db5ba9" y="-80.999999" height="971.999992" fill-opacity="1"/><g clip-path="url(#37bca7565b)"><g clip-path="url(#8aaddad49f)"><g clip-path="url(#50ecb84dfd)"><path fill="#ffc87f" d="M -48.433594 494.746094 L 1672.210938 -889.207031 L 2765.707031 470.3125 L 1045.0625 1854.265625 Z M -48.433594 494.746094 " fill-opacity="1" fill-rule="nonzero"/></g></g></g><g clip-path="url(#638bc4107e)"><g clip-path="url(#123723d8ba)"><g clip-path="url(#fe574fe94e)"><path fill="#ff8a00" d="M 43.398438 405 L 1666.191406 715.835938 L 1483.683594 1668.664062 L -139.109375 1357.832031 Z M 43.398438 405 " fill-opacity="1" fill-rule="nonzero"/></g></g></g></svg>